<svg xmlns="http://www.w3.org/2000/svg" xmlns:xlink="http://www.w3.org/1999/xlink" width="640" zoomAndPan="magnify" viewBox="0 0 480 479.999983" height="640" preserveAspectRatio="xMidYMid meet" version="1.0"><defs><clipPath id="95b2c8613c"><path d="M 345 49 L 430 49 L 430 125.25 L 345 125.25 Z M 345 49 " clip-rule="nonzero"/></clipPath></defs><path fill="#a2a2a2" d="M 120 72 C 93.523438 72 72 93.523438 72 120 L 72 168 C 72 194.476562 93.523438 216 120 216 L 360 216 C 386.476562 216 408 194.476562 408 168 L 408 120 C 408 93.523438 386.476562 72 360 72 Z M 282 126 C 291.976562 126 300 134.023438 300 144 C 300 153.976562 291.976562 162 282 162 C 272.023438 162 264 153.976562 264 144 C 264 134.023438 272.023438 126 282 126 Z M 324 144 C 324 134.023438 332.023438 126 342 126 C 351.976562 126 360 134.023438 360 144 C 360 153.976562 351.976562 162 342 162 C 332.023438 162 324 153.976562 324 144 Z M 120 264 C 93.523438 264 72 285.523438 72 312 L 72 360 C 72 386.476562 93.523438 408 120 408 L 360 408 C 386.476562 408 408 386.476562 408 360 L 408 312 C 408 285.523438 386.476562 264 360 264 Z M 282 318 C 291.976562 318 300 326.023438 300 336 C 300 345.976562 291.976562 354 282 354 C 272.023438 354 264 345.976562 264 336 C 264 326.023438 272.023438 318 282 318 Z M 324 336 C 324 326.023438 332.023438 318 342 318 C 351.976562 318 360 326.023438 360 336 C 360 345.976562 351.976562 354 342 354 C 332.023438 354 324 345.976562 324 336 Z M 324 336 " fill-opacity="1" fill-rule="nonzero"/><g clip-path="url(#95b2c8613c)"><path fill="#ffd31a" d="M 396.921875 55.316406 L 427.757812 108.75 C 431.988281 116.089844 426.703125 125.25 418.246094 125.25 L 356.566406 125.25 C 348.109375 125.25 342.824219 116.089844 347.050781 108.75 L 377.890625 55.316406 C 382.121094 48 392.691406 48 396.921875 55.316406 Z M 396.921875 55.316406 " fill-opacity="1" fill-rule="nonzero"/></g><path fill="#000000" d="M 382.773438 115.527344 C 381.984375 114.671875 381.578125 113.5 381.578125 112.039062 C 381.578125 110.484375 382.050781 109.222656 382.972656 108.257812 C 383.894531 107.289062 385.15625 106.792969 386.753906 106.792969 C 388.261719 106.792969 389.429688 107.21875 390.238281 108.074219 C 391.050781 108.929688 391.453125 110.101562 391.453125 111.566406 C 391.453125 113.117188 390.980469 114.378906 390.039062 115.347656 C 389.09375 116.3125 387.855469 116.808594 386.304688 116.808594 C 384.730469 116.808594 383.558594 116.382812 382.773438 115.527344 Z M 384.257812 100.445312 L 383.0625 73.523438 C 383.042969 73.277344 383.132812 73.007812 383.265625 72.804688 L 383.535156 72.421875 C 383.714844 72.175781 383.988281 71.996094 384.300781 71.949219 L 391.589844 70.777344 C 391.972656 70.710938 392.355469 70.847656 392.625 71.140625 L 392.847656 71.386719 C 393.097656 71.632812 393.207031 71.996094 393.164062 72.332031 L 389.429688 100.289062 C 389.363281 100.78125 388.980469 101.1875 388.484375 101.277344 L 385.875 101.75 C 385.539062 101.820312 385.179688 101.707031 384.910156 101.480469 L 384.660156 101.277344 C 384.414062 101.054688 384.277344 100.761719 384.257812 100.445312 Z M 384.257812 100.445312 " fill-opacity="1" fill-rule="nonzero"/></svg>