<svg xmlns="http://www.w3.org/2000/svg" xmlns:xlink="http://www.w3.org/1999/xlink" width="640" zoomAndPan="magnify" viewBox="0 0 480 479.999983" height="640" preserveAspectRatio="xMidYMid meet" version="1.0"><defs><clipPath id="a3a022b3fc"><path d="M 352.382812 48 L 431.882812 48 L 431.882812 132.75 L 352.382812 132.75 Z M 352.382812 48 " clip-rule="nonzero"/></clipPath></defs><path fill="#ffffff" d="M 120 72 C 93.523438 72 72 93.523438 72 120 L 72 168 C 72 194.476562 93.523438 216 120 216 L 360 216 C 386.476562 216 408 194.476562 408 168 L 408 120 C 408 93.523438 386.476562 72 360 72 Z M 282 126 C 291.976562 126 300 134.023438 300 144 C 300 153.976562 291.976562 162 282 162 C 272.023438 162 264 153.976562 264 144 C 264 134.023438 272.023438 126 282 126 Z M 324 144 C 324 134.023438 332.023438 126 342 126 C 351.976562 126 360 134.023438 360 144 C 360 153.976562 351.976562 162 342 162 C 332.023438 162 324 153.976562 324 144 Z M 120 264 C 93.523438 264 72 285.523438 72 312 L 72 360 C 72 386.476562 93.523438 408 120 408 L 360 408 C 386.476562 408 408 386.476562 408 360 L 408 312 C 408 285.523438 386.476562 264 360 264 Z M 282 318 C 291.976562 318 300 326.023438 300 336 C 300 345.976562 291.976562 354 282 354 C 272.023438 354 264 345.976562 264 336 C 264 326.023438 272.023438 318 282 318 Z M 324 336 C 324 326.023438 332.023438 318 342 318 C 351.976562 318 360 326.023438 360 336 C 360 345.976562 351.976562 354 342 354 C 332.023438 354 324 345.976562 324 336 Z M 324 336 " fill-opacity="1" fill-rule="nonzero"/><g clip-path="url(#a3a022b3fc)"><path fill="#f40606" d="M 405.449219 90.425781 L 405.449219 95.730469 L 410.753906 95.730469 L 410.753906 101.035156 L 416.054688 101.035156 L 416.054688 106.339844 L 421.359375 106.339844 L 421.359375 111.640625 L 426.664062 111.640625 L 426.664062 116.945312 L 431.964844 116.945312 L 431.964844 127.550781 L 426.664062 127.550781 L 426.664062 132.855469 L 416.054688 132.855469 L 416.054688 127.550781 L 410.753906 127.550781 L 410.753906 122.25 L 405.449219 122.25 L 405.449219 116.945312 L 400.144531 116.945312 L 400.144531 111.640625 L 394.839844 111.640625 L 394.839844 106.339844 L 389.539062 106.339844 L 389.539062 111.640625 L 384.234375 111.640625 L 384.234375 116.945312 L 378.929688 116.945312 L 378.929688 122.25 L 373.628906 122.25 L 373.628906 127.550781 L 368.324219 127.550781 L 368.324219 132.855469 L 357.71875 132.855469 L 357.71875 127.550781 L 352.414062 127.550781 L 352.414062 111.640625 L 357.71875 111.640625 L 357.71875 106.339844 L 363.019531 106.339844 L 363.019531 101.035156 L 368.324219 101.035156 L 368.324219 95.730469 L 373.628906 95.730469 L 373.628906 90.425781 L 378.929688 90.425781 L 378.929688 85.125 L 373.628906 85.125 L 373.628906 79.820312 L 368.324219 79.820312 L 368.324219 74.515625 L 363.019531 74.515625 L 363.019531 69.214844 L 357.71875 69.214844 L 357.71875 63.910156 L 352.414062 63.910156 L 352.414062 53.304688 L 357.71875 53.304688 L 357.71875 48 L 368.324219 48 L 368.324219 53.304688 L 373.628906 53.304688 L 373.628906 58.605469 L 378.929688 58.605469 L 378.929688 63.910156 L 384.234375 63.910156 L 384.234375 69.214844 L 389.539062 69.214844 L 389.539062 74.515625 L 394.839844 74.515625 L 394.839844 69.214844 L 400.144531 69.214844 L 400.144531 63.910156 L 405.449219 63.910156 L 405.449219 58.605469 L 410.753906 58.605469 L 410.753906 53.304688 L 416.054688 53.304688 L 416.054688 48 L 426.664062 48 L 426.664062 53.304688 L 431.964844 53.304688 L 431.964844 69.214844 L 426.664062 69.214844 L 426.664062 74.515625 L 421.359375 74.515625 L 421.359375 79.820312 L 416.054688 79.820312 L 416.054688 85.125 L 410.753906 85.125 L 410.753906 90.425781 Z M 405.449219 90.425781 " fill-opacity="1" fill-rule="nonzero"/></g><path fill="#ffffff" d="M 368.324219 53.304688 L 368.324219 58.605469 L 363.019531 58.605469 L 363.019531 63.910156 L 357.71875 63.910156 L 357.71875 53.304688 Z M 368.324219 53.304688 " fill-opacity="1" fill-rule="nonzero"/></svg>