<svg xmlns="http://www.w3.org/2000/svg" xmlns:xlink="http://www.w3.org/1999/xlink" width="640" zoomAndPan="magnify" viewBox="0 0 480 479.999983" height="640" preserveAspectRatio="xMidYMid meet" version="1.0"><defs><filter x="0%" y="0%" width="100%" height="100%" id="f7ed7014eb"><feColorMatrix values="0 0 0 0 1 0 0 0 0 1 0 0 0 0 1 0 0 0 1 0" color-interpolation-filters="sRGB"/></filter><clipPath id="333f163c94"><path d="M 324.425781 48 L 431.675781 48 L 431.675781 140.25 L 324.425781 140.25 Z M 324.425781 48 " clip-rule="nonzero"/></clipPath><mask id="3b6df2e3be"><g filter="url(#f7ed7014eb)"><rect x="-48" width="576" fill="#000000" y="-47.999998" height="575.99998" fill-opacity="0.9"/></g></mask><clipPath id="717e819b7a"><path d="M 0.425781 0 L 107.675781 0 L 107.675781 92.160156 L 0.425781 92.160156 Z M 0.425781 0 " clip-rule="nonzero"/></clipPath><clipPath id="a27e9e8e50"><rect x="0" width="108" y="0" height="93"/></clipPath></defs><path fill="#ffffff" d="M 120 72 C 93.523438 72 72 93.523438 72 120 L 72 168 C 72 194.476562 93.523438 216 120 216 L 360 216 C 386.476562 216 408 194.476562 408 168 L 408 120 C 408 93.523438 386.476562 72 360 72 Z M 282 126 C 291.976562 126 300 134.023438 300 144 C 300 153.976562 291.976562 162 282 162 C 272.023438 162 264 153.976562 264 144 C 264 134.023438 272.023438 126 282 126 Z M 324 144 C 324 134.023438 332.023438 126 342 126 C 351.976562 126 360 134.023438 360 144 C 360 153.976562 351.976562 162 342 162 C 332.023438 162 324 153.976562 324 144 Z M 120 264 C 93.523438 264 72 285.523438 72 312 L 72 360 C 72 386.476562 93.523438 408 120 408 L 360 408 C 386.476562 408 408 386.476562 408 360 L 408 312 C 408 285.523438 386.476562 264 360 264 Z M 282 318 C 291.976562 318 300 326.023438 300 336 C 300 345.976562 291.976562 354 282 354 C 272.023438 354 264 345.976562 264 336 C 264 326.023438 272.023438 318 282 318 Z M 324 336 C 324 326.023438 332.023438 318 342 318 C 351.976562 318 360 326.023438 360 336 C 360 345.976562 351.976562 354 342 354 C 332.023438 354 324 345.976562 324 336 Z M 324 336 " fill-opacity="1" fill-rule="nonzero"/><g clip-path="url(#333f163c94)"><g mask="url(#3b6df2e3be)"><g transform="matrix(1, 0, 0, 1, 324, 48)"><g clip-path="url(#a27e9e8e50)"><g clip-path="url(#717e819b7a)"><path fill="#ff751f" d="M 61.859375 0 C 36.398438 0 15.824219 20.625 15.824219 46.058594 L 0.46875 46.058594 L 20.402344 65.996094 L 20.761719 66.738281 L 41.414062 46.058594 L 26.058594 46.058594 C 26.058594 26.28125 42.105469 10.234375 61.882812 10.234375 C 81.664062 10.234375 97.707031 26.28125 97.707031 46.058594 C 97.707031 65.839844 81.664062 81.886719 61.882812 81.886719 C 51.980469 81.886719 43.050781 77.84375 36.578125 71.367188 L 29.335938 78.609375 C 37.652344 86.953125 49.140625 92.121094 61.859375 92.121094 C 87.320312 92.121094 107.945312 71.496094 107.945312 46.058594 C 107.945312 20.625 87.320312 0 61.859375 0 Z M 56.765625 25.589844 L 56.765625 51.179688 L 78.671875 64.175781 L 82.355469 57.960938 L 64.441406 47.339844 L 64.441406 25.589844 Z M 56.765625 25.589844 " fill-opacity="1" fill-rule="nonzero"/></g></g></g></g></g></svg>